<svg width="512" height="512" viewBox="0 0 512 512" fill="none" xmlns="http://www.w3.org/2000/svg">
  <rect width="512" height="512" rx="112" fill="#0a0a0a"/>
  <g transform="translate(77 75) scale(0.72)">
    <path d="M242.533 501.41C240.987 500.873 238.458 499.563 236.912 498.498C235.366 497.433 232.701 495.161 230.99 493.45C229.278 491.739 224.194 486.291 219.692 481.345C215.189 476.399 210.17 470.834 208.537 468.979C206.905 467.124 205.098 464.848 204.521 463.92L203.472 462.234L203.47 419.656C203.468 390.968 203.655 377.077 204.043 377.077C204.36 377.077 206.975 379.543 209.854 382.558C212.734 385.572 219.873 393.355 225.72 399.854C231.566 406.352 239.213 414.873 242.713 418.788L249.076 425.906L269.109 403.88C280.127 391.766 296.107 374.252 304.621 364.96C313.135 355.667 325.176 342.514 331.378 335.731C337.58 328.948 351.005 314.292 361.211 303.162C371.416 292.033 383.018 279.386 386.993 275.058C390.968 270.73 399.79 261.118 406.597 253.698C413.404 246.279 421.664 237.499 424.952 234.188C429.795 229.311 431.711 227.793 435.031 226.202C437.285 225.122 440.456 223.963 442.077 223.626C443.994 223.228 452.659 223.072 466.876 223.18C486.068 223.325 488.938 223.46 490.449 224.289C491.395 224.807 492.964 226.045 493.936 227.039C494.908 228.032 496.157 229.758 496.712 230.873L497.722 232.901V420.639L496.691 423.98C496.124 425.818 494.907 428.865 493.987 430.752C493.067 432.639 491.027 435.902 489.454 438.002C487.881 440.103 475.945 452.589 462.929 465.75C445.631 483.241 438.185 490.386 435.253 492.308C433.047 493.755 429.485 495.59 427.338 496.386C425.19 497.182 421.936 498.118 420.107 498.466C417.741 498.916 400.078 499.051 358.911 498.934L301.041 498.77L315.009 483.313C322.691 474.811 331.411 465.199 334.387 461.953C337.363 458.707 343.29 452.194 347.557 447.479L355.316 438.907H381.439C402.957 438.907 407.83 438.766 409.08 438.107C409.915 437.667 415.828 432.039 422.221 425.6C428.915 418.858 433.986 413.298 434.179 412.489C434.364 411.716 434.445 388.602 434.361 361.125L434.206 311.165L415.344 331.896C404.97 343.298 389.805 359.962 381.643 368.927C373.481 377.892 362.366 390.046 356.943 395.936C351.519 401.826 341.873 412.323 335.507 419.263C329.141 426.203 319.782 436.457 314.709 442.05C309.637 447.642 297.783 460.669 288.367 470.997C278.951 481.326 269.657 491.354 267.713 493.282C265.77 495.21 262.818 497.691 261.153 498.797C259.488 499.902 256.917 501.17 255.439 501.615C253.962 502.06 251.086 502.415 249.048 502.405C247.01 502.398 244.079 501.947 242.533 501.41Z" fill="#fafafa"/>
    <path d="M67.7227 494.909C69.8867 495.942 73.5544 497.282 75.873 497.888L80.0855 498.986L138.402 499.02C170.477 499.037 196.719 498.91 196.719 498.739C196.719 498.566 192.617 493.824 187.604 488.199C182.59 482.575 174.559 473.669 169.757 468.409C164.955 463.149 157.125 454.486 152.357 449.158C147.589 443.829 143.669 439.416 143.645 439.348C143.621 439.281 131.461 439.091 116.621 438.926L89.6411 438.627L87.6011 437.066C86.4791 436.208 80.6614 430.413 74.673 424.189L63.7849 412.872L63.6413 258.065C63.5268 134.59 63.6406 103.054 64.2034 102.252C64.5915 101.699 74.0067 91.9575 85.1261 80.6039C96.2454 69.2504 106.034 59.6035 106.879 59.1668C108.191 58.4889 128.982 58.373 249.106 58.3762L389.797 58.3798L391.203 59.362C391.975 59.9022 401.887 69.702 413.229 81.1393C424.57 92.5766 434.119 102.646 434.448 103.517C434.844 104.564 435.046 115.438 435.046 135.696V166.294H460.532C480.891 166.294 486.549 166.134 488.662 165.498C490.116 165.06 492.153 164.056 493.19 163.265C494.226 162.475 495.732 160.507 496.537 158.892L498 155.955L497.993 124.729C497.985 99.4823 497.826 92.7591 497.16 89.6177C496.708 87.4807 495.596 84.1488 494.691 82.2135C493.785 80.2783 491.955 77.221 490.624 75.4195C489.294 73.6181 480.206 63.9235 470.43 53.876C460.654 43.8285 447.666 30.4225 441.567 24.0849C435.468 17.7473 429.213 11.5235 427.667 10.2542C426.121 8.98483 423.292 7.01807 421.38 5.88357C419.469 4.74906 415.892 3.18254 413.432 2.40232C410.972 1.62204 407.051 0.733708 404.72 0.427434C401.985 0.0681902 345.612 -0.0710218 245.905 0.0342387L91.3305 0.197185L87.9579 1.19787C86.103 1.74814 82.7108 3.08263 80.4196 4.16328C78.1284 5.244 74.682 7.24986 72.7608 8.62076C70.8396 9.99172 60.1937 20.4258 49.1031 31.8076C38.0125 43.1894 24.258 57.427 18.5375 63.4467C12.8169 69.4663 7.19971 75.8095 6.05471 77.5425C4.90971 79.2756 3.47374 81.9598 2.8637 83.5075C2.25366 85.0552 1.35769 88.2428 0.872677 90.591C0.0834 94.4121 -0.00828943 111.788 0.00053887 256.064C0.00902083 396.24 0.118836 417.78 0.842471 421.201C1.30017 423.365 2.65082 427.16 3.84389 429.633C5.03698 432.106 7.24969 435.774 8.76106 437.783C10.2724 439.793 17.8611 447.887 25.6248 455.77C33.3885 463.653 43.6336 474.112 48.3918 479.011C53.1499 483.91 58.5606 489.068 60.4155 490.474C62.2704 491.88 65.5586 493.875 67.7227 494.909Z" fill="#fafafa"/>
    <path d="M164.223 420.277C168.303 424.805 174.945 432.101 178.983 436.491C183.02 440.881 186.513 444.487 186.745 444.501C186.977 444.516 187.167 425.851 187.167 403.023V361.518L185.454 358.091C184.512 356.206 182.818 353.853 181.689 352.861C180.56 351.87 178.61 350.605 177.356 350.05C176.101 349.495 173.433 348.775 171.425 348.449C169.123 348.076 153.498 347.855 129.131 347.853L90.4873 347.849V375.69C90.4873 398.021 90.6399 403.89 91.258 405.34C91.6819 406.335 92.6339 407.706 93.3736 408.387C94.1132 409.068 95.6406 410.011 96.7677 410.481C98.5019 411.206 103.08 411.345 126.551 411.399C141.804 411.433 154.852 411.593 155.544 411.754C156.237 411.915 160.143 415.75 164.223 420.277Z" fill="#fafafa"/>
    <path d="M377.226 400.575C372.394 405.924 368.357 410.54 368.254 410.833C368.139 411.16 374.309 411.365 384.236 411.365C399.442 411.365 400.55 411.295 402.811 410.201C404.223 409.517 405.747 408.183 406.502 406.969L407.787 404.901V386.914C407.787 372.935 407.631 368.927 407.088 368.927C406.702 368.927 401.803 373.859 396.199 379.888C390.596 385.916 382.058 395.225 377.226 400.575Z" fill="#fafafa"/>
    <path d="M227.755 376.121C233.075 382.057 239.94 389.64 243.009 392.973L248.591 399.032L249.712 398.032C250.328 397.482 257.312 389.98 265.232 381.362C273.151 372.744 279.715 365.472 279.818 365.202C279.924 364.926 266.456 364.711 249.044 364.711C232.015 364.711 218.082 364.85 218.082 365.02C218.082 365.189 222.435 370.185 227.755 376.121Z" fill="#fafafa"/>
    <path d="M207.508 345.143C208.662 346.298 210.439 347.483 211.456 347.776C212.537 348.089 229.751 348.327 252.931 348.348C290.246 348.384 292.692 348.326 294.834 347.353C296.266 346.702 299.39 343.895 303.265 339.777C306.651 336.179 309.857 332.286 310.39 331.126C311.274 329.203 311.361 325.915 311.374 293.556C311.386 264.559 311.244 257.611 310.593 255.449C310.155 253.994 309.15 251.957 308.36 250.92C307.569 249.884 305.714 248.441 304.237 247.714L301.552 246.391L257.228 246.569C229.387 246.679 212.351 246.955 211.42 247.31C210.604 247.62 209.086 248.522 208.046 249.316C207.006 250.109 205.683 251.799 205.105 253.071L204.054 255.385L204.042 296.914C204.033 328.109 204.201 339.016 204.719 340.744C205.098 342.009 206.353 343.989 207.508 345.143Z" fill="#fafafa"/>
    <path d="M92.0515 328.261C92.8611 329.223 94.2948 330.349 95.2375 330.763C96.628 331.371 104.984 331.492 139.489 331.391L182.026 331.267L183.578 330.108C184.432 329.471 185.652 328.251 186.289 327.397L187.448 325.846L187.603 295.178L187.757 264.511L186.56 262.037C185.731 260.325 184.688 259.219 183.175 258.447L180.988 257.332L138.308 257.482L95.6284 257.633L94.0764 258.792C93.2228 259.429 92.0029 260.649 91.3655 261.503L90.2066 263.055L90.0734 291.259C90.0001 306.771 90.0841 321.049 90.2599 322.988C90.5033 325.671 90.9309 326.93 92.0515 328.261Z" fill="#fafafa"/>
    <path d="M119.716 308.797C119.716 311.959 119.477 313.169 118.653 314.187C117.749 315.303 116.969 315.531 113.454 315.708C109.874 315.888 109.109 315.751 107.772 314.697L106.226 313.479V308.742C106.226 304.755 106.404 303.828 107.35 302.881C108.285 301.946 109.224 301.757 112.93 301.757C117.075 301.757 117.468 301.861 118.551 303.238C119.486 304.427 119.716 305.523 119.716 308.797Z" fill="#0a0a0a"/>
    <path d="M172.203 312.131C172.011 312.631 171.139 313.411 170.264 313.863C168.972 314.531 165.503 314.685 151.74 314.685H134.806L133.163 313.042C131.971 311.85 131.52 310.857 131.52 309.425C131.52 308.339 131.771 306.79 132.079 305.982C132.407 305.118 133.441 304.177 134.59 303.697C136.137 303.051 139.765 302.881 152.036 302.881C164.125 302.881 167.948 303.056 169.434 303.677C170.481 304.114 171.611 304.983 171.945 305.607C172.279 306.231 172.553 307.75 172.553 308.981C172.553 310.213 172.395 311.63 172.203 312.131Z" fill="#0a0a0a"/>
    <path d="M119.716 280.398C119.716 284.166 119.555 284.85 118.415 285.921C117.318 286.951 116.453 287.143 112.892 287.143C109.206 287.143 108.515 286.978 107.448 285.842C106.418 284.745 106.226 283.88 106.226 280.327C106.226 276.893 106.433 275.89 107.348 274.909C107.965 274.246 109.372 273.535 110.475 273.328C111.578 273.121 113.501 273.089 114.748 273.256C115.996 273.424 117.624 274.131 118.366 274.829C119.563 275.953 119.716 276.584 119.716 280.398Z" fill="#0a0a0a"/>
    <path d="M172.438 280.261C172.301 282.833 172.027 283.551 170.866 284.386C169.606 285.293 167.796 285.415 153.299 285.568C144.41 285.66 136.948 285.694 136.717 285.646C136.486 285.596 135.607 285.403 134.762 285.216C133.837 285.013 132.888 284.223 132.373 283.228C131.904 282.32 131.52 280.787 131.52 279.82C131.52 278.627 132.048 277.535 133.163 276.42L134.806 274.777H169.591L171.098 275.962C172.456 277.031 172.589 277.456 172.438 280.261Z" fill="#0a0a0a"/>
    <path d="M328.107 276.749C328 290.04 328.005 303.54 328.12 306.749C328.235 309.958 328.523 312.361 328.76 312.088C328.998 311.816 335.494 304.664 343.195 296.195C350.896 287.726 359.071 278.747 361.361 276.241C363.651 273.735 370.206 266.5 375.929 260.162C381.651 253.824 386.67 248.358 387.082 248.015C387.494 247.672 387.831 247.229 387.831 247.031C387.831 246.834 375.728 246.672 360.934 246.672H334.037L332.157 247.939C331.124 248.635 329.834 249.966 329.291 250.895C328.401 252.42 328.285 254.943 328.107 276.749Z" fill="#fafafa"/>
    <path d="M92.0452 238.32C92.8382 239.262 94.0136 240.249 94.6571 240.512C95.3006 240.775 115.477 240.941 139.493 240.88L183.159 240.77L184.894 239.107C185.849 238.193 186.893 236.549 187.215 235.454C187.59 234.177 187.737 225.7 187.624 211.823L187.448 190.182L186.324 188.274C185.705 187.224 184.486 185.833 183.613 185.182L182.026 183.999L139.315 183.848C100.854 183.712 96.4112 183.788 94.678 184.611C93.6194 185.113 92.1802 186.446 91.4798 187.572L90.2062 189.62L90.0207 206.202C89.9187 215.322 90.0081 225.894 90.2194 229.695C90.5699 236.002 90.7295 236.756 92.0452 238.32Z" fill="#fafafa"/>
    <path d="M132.363 222.475L130.806 224.035L129.248 225.594L120.126 225.738C113.194 225.847 110.576 225.689 109.221 225.081C108.241 224.641 107.166 223.771 106.832 223.148C106.464 222.46 106.226 218.122 106.226 212.115V202.217L107.568 200.874C108.307 200.136 109.778 199.369 110.838 199.17C111.897 198.972 116.473 198.891 121.007 198.992L129.249 199.176L130.806 200.734L132.363 202.292V222.475Z" fill="#0a0a0a"/>
    <path d="M172.553 219.617C172.553 221.195 172.143 222.354 171.197 223.455L169.842 225.032L159.534 225.169C151.196 225.279 148.933 225.143 147.694 224.455C146.852 223.988 145.903 223.121 145.586 222.529C145.269 221.937 145.01 220.531 145.01 219.405C145.01 217.891 145.439 216.929 146.653 215.714L148.296 214.071H169.267L170.91 215.714C172.181 216.985 172.553 217.869 172.553 219.617Z" fill="#0a0a0a"/>
    <path d="M206.482 226.257C207.452 227.309 209.257 228.528 210.494 228.965C212.396 229.638 227.135 229.76 306.294 229.78L399.845 229.807L402.278 228.629C403.971 227.809 405.179 226.655 406.245 224.835L407.778 222.22L407.624 206.513L407.471 190.806L406.222 188.542C405.498 187.23 404.03 185.744 402.727 185.007L400.48 183.734L306.172 183.727C228.219 183.72 211.548 183.85 210.045 184.478C209.046 184.895 207.423 186.153 206.44 187.273C205.457 188.392 204.388 190.264 204.063 191.432C203.734 192.618 203.472 199.061 203.471 206.033C203.469 213.084 203.74 219.781 204.093 221.428C204.498 223.316 205.339 225.017 206.482 226.257Z" fill="#fafafa"/>
    <rect x="218" y="262" width="80" height="44" rx="6" fill="#fafafa"/>
    <rect x="218" y="317" width="44" height="9" rx="3" fill="#fafafa"/>
    <path d="M328.252 166.828L337.386 166.982C342.409 167.07 360.145 167.081 376.8 167.02C393.455 166.957 407.241 166.744 407.434 166.548C407.627 166.353 407.721 154.547 407.641 140.313L407.495 114.432L405.954 111.555C404.931 109.644 400.926 105.228 394.022 98.3962C386.745 91.1953 382.781 87.6985 380.796 86.727L377.96 85.3398L353.093 85.4864L328.227 85.6331L328.139 109.804C328.091 123.097 328.098 141.366 328.153 150.401L328.252 166.828Z" fill="#fafafa"/>
    <path d="M90.2058 114.3L90.0395 140.578L89.873 166.855H311.389V85.3525H119.375L116.57 86.7503C114.596 87.7338 110.671 91.2737 103.324 98.6947C97.3183 104.761 92.3151 110.316 91.5449 111.771L90.2058 114.3Z" fill="#fafafa"/>
    <path d="M154.004 143.36L152.092 145.271L150.181 147.181L132.841 147.174C120.197 147.168 115.134 146.978 114.149 146.471C113.406 146.089 112.268 145.064 111.62 144.192C110.543 142.744 110.426 141.724 110.259 132.388C110.158 126.768 110.239 120.849 110.438 119.235L110.799 116.3L116.274 110.663L121.748 105.025H135.374C146.455 105.025 149.309 105.185 150.649 105.878C151.556 106.347 152.682 107.473 153.151 108.38C153.857 109.745 154.004 112.897 154.004 126.694V143.36Z" fill="#0a0a0a"/>
    <path fill-rule="evenodd" clip-rule="evenodd" d="M365.748 139.164L347.834 121.25L352.312 116.772L367.987 132.447L383.662 116.772L388.14 121.25L370.226 139.164C369.632 139.758 368.827 140.091 367.987 140.091C367.147 140.091 366.342 139.758 365.748 139.164Z" fill="#fafafa"/>
    <path d="M379.931 199.333H396.069C396.706 199.332 397.33 199.512 397.87 199.851C398.409 200.19 398.841 200.675 399.116 201.25C399.438 201.932 399.562 202.69 399.474 203.439C399.386 204.188 399.09 204.897 398.618 205.486L390.549 215.261C390.232 215.626 389.841 215.919 389.401 216.12C388.961 216.321 388.483 216.425 388 216.425C387.516 216.425 387.038 216.321 386.599 216.12C386.159 215.919 385.767 215.626 385.451 215.261L377.381 205.486C376.91 204.897 376.613 204.188 376.525 203.439C376.437 202.69 376.561 201.932 376.883 201.25C377.158 200.675 377.59 200.19 378.13 199.851C378.669 199.512 379.293 199.332 379.931 199.333Z" fill="#fafafa"/>
  </g>
</svg>
